<svg width="1220" height="1220" viewBox="0 0 1220 1220" fill="none" xmlns="http://www.w3.org/2000/svg">
<path d="M1220 610C1220 946.894 946.894 1220 610 1220C273.106 1220 0 946.894 0 610C0 273.106 273.106 0 610 0C946.894 0 1220 273.106 1220 610Z" fill="url(#paint0_linear_1016_271)"/>
<path d="M1205 610C1205 938.609 938.609 1205 610 1205C281.391 1205 15 938.609 15 610C15 591.17 19.2477 578.551 25.608 569.96C31.9165 561.438 41.4761 555.294 55.1604 551.579C83.5265 543.878 125.63 547.645 177.969 558.794C224.531 568.712 276.89 583.91 331.369 599.722C337.447 601.487 343.551 603.258 349.677 605.032C410.379 622.601 473.01 640.235 531.034 650.917C588.779 661.547 643.731 665.659 688.56 654.897C734.497 643.869 770.139 617.018 786.298 567.257C801.954 519.044 798.672 451.179 773.395 358.711C749.247 270.375 704.518 157.817 634.393 15.4106C980.761 27.1322 1205 288.352 1205 610Z" fill="url(#paint1_linear_1016_271)" stroke="#F5F5F5" stroke-width="30"/>
<defs>
<linearGradient id="paint0_linear_1016_271" x1="610" y1="-1.81794e-05" x2="-2.72691e-05" y2="1220" gradientUnits="userSpaceOnUse">
<stop stop-color="#FFEB3B"/>
<stop offset="0.478164" stop-color="#FF9800"/>
</linearGradient>
<linearGradient id="paint1_linear_1016_271" x1="1220" y1="1220" x2="0" y2="0" gradientUnits="userSpaceOnUse">
<stop offset="0.124099" stop-color="#03A9F4"/>
<stop offset="1" stop-color="#02628E"/>
</linearGradient>
</defs>
</svg>
